<?xml version="1.0" encoding="utf-8"?>
<!-- Generator: Adobe Illustrator 16.0.0, SVG Export Plug-In . SVG Version: 6.00 Build 0)  -->
<!DOCTYPE svg PUBLIC "-//W3C//DTD SVG 1.1//EN" "http://www.w3.org/Graphics/SVG/1.1/DTD/svg11.dtd">
<svg version="1.1" id="Layer_1" xmlns="http://www.w3.org/2000/svg" xmlns:xlink="http://www.w3.org/1999/xlink" x="0px" y="0px"
	 width="512px" height="512px" viewBox="0 0 512 512" enable-background="new 0 0 512 512" xml:space="preserve">
<g>
	<g>
		<g>
			<path fill="#FFFFFF" d="M123.01,195.757l13.664,123.015c0.499,4.47,4.273,7.853,8.775,7.853h220.691
				c4.501,0,8.276-3.383,8.775-7.853l13.663-123.015c24.078-11.851,39.354-36.16,39.354-63.341c0-38.94-31.683-70.621-70.621-70.621
				c-2.172,0-4.346,0.098-6.508,0.299C336.487,25.177,300.28,0,260.209,0c-40.854,0-77.122,25.643-91.079,63.357
				c-4.853-1.039-9.819-1.564-14.854-1.564c-38.94,0-70.62,31.682-70.62,70.62C83.656,159.597,98.933,183.906,123.01,195.757z
				 M154.277,79.448c6.088,0,12.051,1.018,17.709,3.03c2.319,0.829,4.888,0.645,7.06-0.504c2.182-1.142,3.784-3.146,4.422-5.526
				c9.294-34.616,40.854-58.792,76.742-58.792c34.896,0,66.217,23.337,76.163,56.747c1.302,4.394,5.751,7.06,10.232,6.128
				c3.5-0.714,7.104-1.083,10.708-1.083c29.208,0,52.965,23.758,52.965,52.965c0,21.746-13.035,41.043-33.206,49.159
				c-3.018,1.216-5.12,3.987-5.483,7.215l-13.353,120.178H153.355L140.002,188.79c-0.361-3.228-2.466-5.999-5.483-7.215
				c-20.172-8.116-33.207-27.413-33.207-49.159C101.312,103.208,125.07,79.448,154.277,79.448z"/>
			<path fill="#FFFFFF" d="M133.521,155.838c4.362-2.187,6.121-7.491,3.937-11.848c-4.362-8.704-0.828-19.334,7.874-23.695
				c4.361-2.186,6.12-7.49,3.937-11.847c-2.184-4.357-7.486-6.123-11.847-3.937c-17.41,8.726-24.471,29.982-15.747,47.39
				C123.858,156.258,129.157,158.024,133.521,155.838z"/>
			<path fill="#FFFFFF" d="M252.4,45.743c1.747,4.556,6.853,6.828,11.403,5.083c9.09-3.485,19.321,1.078,22.806,10.166
				c1.747,4.555,6.853,6.827,11.403,5.082c4.551-1.745,6.829-6.848,5.083-11.402c-6.972-18.184-27.432-27.301-45.612-20.331
				C252.929,36.086,250.654,41.188,252.4,45.743z"/>
			<path fill="#FFFFFF" d="M364.478,108.533c-1.856,4.512,0.299,9.668,4.807,11.522c9.003,3.703,13.315,14.042,9.612,23.044
				c-1.855,4.512,0.299,9.668,4.807,11.522c4.507,1.854,9.666-0.295,11.521-4.807c7.407-18.01-1.217-38.683-19.225-46.089
				C371.492,101.873,366.333,104.021,364.478,108.533z"/>
			<path fill="#FFFFFF" d="M430.028,395.586c-3.156-3.048-7.631-3.116-10.838-0.168c-13.25,12.104-39.647,21.236-61.415,21.236
				c-27.63,0-48.786-11.935-64.69-36.479c-1.672-2.583-4.24-4.091-6.957-4.091h-60.689c-2.716,0-5.284,1.508-6.957,4.087
				c-16.354,25.23-35.896,36.482-63.372,36.482c-19.008,0-37.724-7.547-52.706-21.236c-3.216-2.942-7.691-2.877-10.838,0.168
				c-3.155,3.04-4.197,8.283-2.525,12.725C104.902,450.465,140.524,493,184.36,493c24.173,0,51.163-3.44,71.905-27.088
				C278.24,489.986,309.999,493,332.92,493c44.018,0,84.182-43.638,99.63-84.689C434.225,403.869,433.181,398.631,430.028,395.586z
				 M332.92,471.7c-34.749,0-56.956-8.911-69.896-28.05c-1.673-2.477-4.182-3.916-6.836-3.916s-5.165,1.439-6.835,3.916
				c-13.475,19.922-32.302,28.05-64.992,28.05c-24.663,0-46.76-17.771-62.388-40.212c10.63,4.242,21.844,6.463,33.138,6.463
				c31.009,0,55.431-13.281,74.526-40.569h52.304c18.938,26.925,44.439,40.569,75.836,40.569c12.061,0,27.458-2.58,42.034-8.019
				C382.725,453.289,357.92,471.7,332.92,471.7z"/>
			<path fill="#FFFFFF" d="M309.194,356.676c0,25.125,20.435,45.569,45.568,45.569s45.569-20.444,45.569-45.569
				s-20.436-45.568-45.569-45.568S309.194,331.551,309.194,356.676z M363.879,356.676c0,5.028-4.095,9.112-9.112,9.112
				c-5.022,0-9.112-4.084-9.112-9.112c0-5.025,4.097-9.111,9.112-9.111C359.784,347.561,363.879,351.645,363.879,356.676z"/>
			<path fill="#FFFFFF" d="M112.194,356.676c0,25.125,20.435,45.569,45.568,45.569s45.569-20.444,45.569-45.569
				s-20.436-45.568-45.569-45.568S112.194,331.551,112.194,356.676z M166.879,356.676c0,5.028-4.095,9.112-9.112,9.112
				c-5.022,0-9.112-4.084-9.112-9.112c0-5.025,4.097-9.111,9.112-9.111C162.784,347.561,166.879,351.645,166.879,356.676z"/>
		</g>
	</g>
</g>
</svg>
